<svg xmlns="http://www.w3.org/2000/svg" xmlns:xlink="http://www.w3.org/1999/xlink" viewBox="0 0 1024 1024"><clipPath id="f"><path d="M82.57 66.92c51.53-33.07 273.4-35.94 329.23 0 34.35 23 35.79 79.07 24.33 136.57-12.88 66.13-34.35 99.2-67.28 115.01-31.49 15.81-75.87 18.69-127.4 17.25-83.02 0-128.83-8.63-151.73-37.38-21.47-27.31-30.06-84.82-31.49-143.76-1.43-47.44 4.29-71.88 24.33-87.69z"/></clipPath><linearGradient id="a"><stop offset="0" stop-color="#f4cf00"/><stop offset=".28" stop-color="#00a451"/><stop offset=".58" stop-color="#0068d7"/><stop offset=".8" stop-color="#4236c4"/><stop offset="1" stop-color="#8d27a8"/></linearGradient><linearGradient xlink:href="#a" id="g" x1="629.69" x2="852.36" y1="906.47" y2="692.42" gradientTransform="matrix(1 0 0 -1 0 1026)" gradientUnits="userSpaceOnUse"/><linearGradient xlink:href="#a" id="h" x1="692.16" x2="914.83" y1="971.98" y2="757.93" gradientTransform="matrix(1 0 0 -1 0 1026)" gradientUnits="userSpaceOnUse"/><linearGradient id="b" x1="16.66" x2="1014.69" y1="1027.09" y2="677.71" gradientTransform="matrix(1 0 0 -1 0 1026)" gradientUnits="userSpaceOnUse"><stop offset="0" stop-color="#006c80"/><stop offset=".2" stop-color="#2d245b"/><stop offset=".4" stop-color="#872957"/><stop offset=".6" stop-color="#8d2b24"/><stop offset=".8" stop-color="#8f9037"/><stop offset="1" stop-color="#00653a"/></linearGradient><linearGradient xlink:href="#b" id="i" x1="-7.94" x2="990.5" y1="956.84" y2="607.32"/><linearGradient xlink:href="#b" id="j" x1="98.02" x2="1095.85" y1="1259.68" y2="910.37"/><linearGradient id="c"><stop offset="0" stop-color="#e91825"/><stop offset=".24" stop-color="#ff3b00"/><stop offset=".47" stop-color="#ff8b00"/><stop offset=".73" stop-color="#ffd000"/><stop offset=".91" stop-color="#ffe000"/><stop offset="1" stop-color="#9cc81d"/></linearGradient><linearGradient xlink:href="#c" id="k" x1="5.27" x2="984.7" y1="563.22" y2="352.73" gradientTransform="matrix(1 0 0 -1 0 1026)" gradientUnits="userSpaceOnUse"/><linearGradient xlink:href="#c" id="l" x1="19.3" x2="999.95" y1="631.93" y2="421.18" gradientTransform="matrix(1 0 0 -1 0 1026)" gradientUnits="userSpaceOnUse"/><linearGradient xlink:href="#c" id="m" x1="34.24" x2="1013.63" y1="698.54" y2="488.06" gradientTransform="matrix(1 0 0 -1 0 1026)" gradientUnits="userSpaceOnUse"/><linearGradient id="d"><stop offset="0" stop-color="#ff9800"/><stop offset=".22" stop-color="#ffc400"/><stop offset=".42" stop-color="#b8ce00"/><stop offset=".59" stop-color="#00a56b"/><stop offset=".76" stop-color="#0072c9"/><stop offset=".9" stop-color="#164cc0"/><stop offset="1" stop-color="#5131ad"/></linearGradient><linearGradient xlink:href="#d" id="n" x1="-.05" x2="995.29" y1="321.97" y2="134.36" gradientTransform="matrix(1 0 0 -1 0 1026)" gradientUnits="userSpaceOnUse"/><linearGradient xlink:href="#d" id="o" x1="8.11" x2="1003.47" y1="366.02" y2="178.4" gradientTransform="matrix(1 0 0 -1 0 1026)" gradientUnits="userSpaceOnUse"/><linearGradient xlink:href="#d" id="p" x1="13.75" x2="1009.31" y1="396.99" y2="209.34" gradientTransform="matrix(1 0 0 -1 0 1026)" gradientUnits="userSpaceOnUse"/><linearGradient xlink:href="#d" id="q" x1="20.16" x2="1015.71" y1="431.67" y2="244.02" gradientTransform="matrix(1 0 0 -1 0 1026)" gradientUnits="userSpaceOnUse"/><linearGradient xlink:href="#d" id="r" x1="26.07" x2="1021.57" y1="463.55" y2="275.91" gradientTransform="matrix(1 0 0 -1 0 1026)" gradientUnits="userSpaceOnUse"/><linearGradient id="e"><stop offset="0" stop-color="#00a27d"/><stop offset=".2" stop-color="#0089c3"/><stop offset=".42" stop-color="#1555c6"/><stop offset=".66" stop-color="#5e2db2"/><stop offset=".84" stop-color="#8127a8"/><stop offset="1" stop-color="#a22a9d"/></linearGradient><linearGradient xlink:href="#e" id="s" x1="7.74" x2="1003.11" y1="114.4" y2="-47.44" gradientTransform="matrix(1 0 0 -1 0 1026)" gradientUnits="userSpaceOnUse"/><linearGradient xlink:href="#e" id="t" x1="12.98" x2="1008.41" y1="147.41" y2="-14.44" gradientTransform="matrix(1 0 0 -1 0 1026)" gradientUnits="userSpaceOnUse"/><linearGradient xlink:href="#e" id="u" x1="17.4" x2="1012.78" y1="175.16" y2="13.32" gradientTransform="matrix(1 0 0 -1 0 1026)" gradientUnits="userSpaceOnUse"/><linearGradient xlink:href="#e" id="v" x1="22.49" x2="1017.7" y1="206.51" y2="44.7" gradientTransform="matrix(1 0 0 -1 0 1026)" gradientUnits="userSpaceOnUse"/><linearGradient xlink:href="#e" id="w" x1="28.31" x2="1023.46" y1="242.31" y2="80.51" gradientTransform="matrix(1 0 0 -1 0 1026)" gradientUnits="userSpaceOnUse"/><g stroke-linecap="round" stroke-linejoin="round" stroke-width="5" clip-path="url(#f)"><g fill="none"><path stroke="#f0441d" d="M211.4 30.98v57.5l-21.47 21.56v41.69h-38.65v28.75h-27.2v46l-14.31 14.38v106.38"/><path stroke="#ec2e27" d="M149.85 78.43V123h-48.67v89.13l11.45 14.38v120.76"/><path stroke="#f27a00" d="M360.27 84.18h-70.14l-50.1 50.32"/><path stroke="#eca600" d="M398.92 138.81h-93.04l-40.08 43.13H162.74l-35.79 35.94v129.39"/><path stroke="#4ba531" d="M371.72 190.56h-51.53l-28.63 27.31h-83.02l-45.81 47.44v81.94"/><path stroke="#06769e" d="M351.68 239.44v44.57h-28.63l-31.49-33.07H211.4l-24.33 23v73.32"/><path stroke="#0969ba" d="M228.58 286.88h31.49l31.49 27.31v33.07"/></g><g fill="#fff"><ellipse cx="149.85" cy="78.43" stroke="#ec2e27" rx="11.45" ry="11.5"/><ellipse cx="101.18" cy="122.99" stroke="#ec2e27" rx="11.45" ry="11.5"/><ellipse cx="360.27" cy="84.18" stroke="#f27a00" rx="11.45" ry="11.5"/><ellipse cx="240.03" cy="134.49" stroke="#f27a00" rx="11.45" ry="11.5"/><ellipse cx="398.92" cy="138.81" stroke="#eca600" rx="11.45" ry="11.5"/><ellipse cx="371.72" cy="190.56" stroke="#4ba531" rx="11.45" ry="11.5"/><g stroke="#06769e"><ellipse cx="351.68" cy="239.44" rx="11.45" ry="11.5"/><ellipse cx="228.58" cy="286.88" rx="11.45" ry="11.5"/></g></g></g><path fill="url(#g)" d="M719.56 87.05h-17.18c-20.04 0-30.06 12.94-30.06 34.5v35.94c0 18.69-8.59 28.75-24.33 31.63v10.06c15.75 2.88 24.33 14.38 24.33 33.07v30.19c0 21.56 11.45 33.07 30.06 33.07h17.18V279.7h-11.45c-8.59 0-12.88-7.19-12.88-20.13v-28.75c0-20.13-8.59-33.07-22.9-37.38 14.31-4.31 22.9-17.25 22.9-37.38v-31.63c0-14.38 4.29-21.56 12.88-21.56h11.45V87.06z"/><path fill="url(#h)" d="M819.76 87.05h17.18c20.04 0 30.06 12.94 30.06 34.5v35.94c0 18.69 8.59 28.75 24.33 31.63v10.06c-15.75 2.88-24.33 14.38-24.33 33.07v30.19c0 21.56-11.45 33.07-30.06 33.07h-17.18V279.7h11.45c8.59 0 12.88-7.19 12.88-20.13v-28.75c0-20.13 8.59-33.07 22.9-37.38-14.31-4.31-22.9-17.25-22.9-37.38v-31.63c0-14.38-4.29-21.56-12.88-21.56h-11.45V87.06z"/><path fill="url(#b)" fill-rule="evenodd" d="M12.43 39.61C118.36 9.42 350.25.79 421.82 35.3c20.04 10.06 34.35 23 44.37 40.25 30.06-4.31 62.98-4.31 93.04 0C570.68 59.74 585 46.8 603.6 36.73c74.43-37.38 277.7-30.19 400.8 0 4.29 1.44 5.73 4.31 5.73 10.06v35.94c-15.75 10.06-22.9 23-25.77 41.69-7.16 57.5-14.31 136.57-50.1 186.89-30.06 41.69-81.59 50.32-178.93 48.88-98.77-1.44-147.44-14.38-173.2-58.94-25.77-44.57-34.35-113.57-34.35-152.39 0-17.25-5.73-24.44-20.04-25.88-14.31-2.88-32.92-2.88-45.81 1.44-10.02 4.31-14.31 12.94-17.18 28.75-7.16 48.88-14.31 109.26-37.22 150.95-27.2 47.44-81.59 56.07-183.22 54.63-88.75-1.44-138.85-10.06-166.05-46-32.92-44.57-37.22-125.07-42.94-185.45-2.86-20.13-8.59-31.63-22.9-41.69l-1.43-37.38c0-4.31 0-7.19 1.43-8.63zm70.14 27.31c-20.04 15.81-25.77 40.25-24.33 87.69 1.43 58.94 10.02 116.45 31.49 143.76 22.9 28.75 68.71 37.38 151.73 37.38 51.53 1.44 95.91-1.44 127.4-17.25 32.92-15.81 54.39-48.88 67.28-115.01 11.45-57.5 10.02-113.57-24.33-136.57-55.83-35.94-277.7-33.07-329.23 0zm523.9-1.43C574.98 88.49 573.55 146 585 203.5c12.88 66.13 34.35 99.2 67.28 115.01 31.49 15.81 75.87 18.69 127.4 17.25 83.02 0 128.83-8.63 151.73-37.38 21.47-27.31 30.06-84.82 31.49-143.76 1.43-47.44-4.29-71.88-24.33-87.69-51.53-33.07-276.27-35.94-332.09-1.44z"/><path fill="url(#i)" d="m12.43 39.61-1.43 46c15.75 10.06 24.33 18.69 30.06 37.38l37.22-44.57c-8.59-12.94-25.77-23-44.37-30.19L12.44 39.6z"/><path fill="url(#j)" d="m1004.41 36.73 5.73 10.06v35.94c-15.75 10.06-22.9 21.56-27.2 40.25l-40.08-46c11.45-17.25 34.35-28.75 61.55-40.25"/><ellipse cx="43.92" cy="64.05" fill="#fff" rx="20.04" ry="7.19"/><ellipse cx="977.21" cy="64.05" fill="#fff" rx="20.04" ry="7.19"/><g fill-rule="evenodd"><path fill="url(#k)" d="M21.02 396.14H334.5c54.39 0 85.89 21.56 85.89 58.94 0 18.69-10.02 33.07-28.63 41.69 30.06 8.63 45.81 27.31 45.81 53.19 0 35.94-28.63 57.5-78.73 57.5H21.02V396.13zm64.41 44.56v40.25H334.5c15.75 0 24.33-7.19 24.33-20.13s-8.59-20.13-24.33-20.13H85.43zm0 81.95v41.69h261.95c15.75 0 24.33-7.19 24.33-21.56 0-12.94-8.59-20.13-24.33-20.13z"/><path fill="url(#l)" d="M481.94 396.14h77.3v211.33h-77.3z"/><path fill="url(#m)" d="M997.25 396.14H712.4c-71.57 0-110.22 38.82-110.22 106.38s38.65 104.95 110.22 104.95h284.85v-122.2H785.4v44.57h148.87v34.5H716.69c-32.92 0-50.1-17.25-50.1-61.82s17.18-61.82 50.1-61.82h280.56v-44.57z"/><path fill="url(#n)" d="M69.69 637.66h87.32c35.79 0 54.39 21.56 54.39 60.38v54.63c0 24.44-7.16 41.69-22.9 51.75l35.79 21.56h-55.83l-15.75-12.94H69.69c-37.22 0-55.83-21.56-55.83-60.38v-54.63c0-38.82 18.61-60.38 55.83-60.38zm15.74 35.94c-20.04 0-30.06 10.06-30.06 30.19v43.13c0 20.13 10.02 30.19 30.06 30.19h55.83c20.04 0 30.06-10.06 30.06-30.19v-43.13c0-20.13-10.02-30.19-30.06-30.19z"/><path fill="url(#o)" d="M237.17 637.66h40.08v109.26c0 20.13 10.02 30.19 30.06 30.19h37.22c20.04 0 30.06-10.06 30.06-30.19V637.66h41.51v115.01c0 40.25-24.33 60.38-70.14 60.38h-40.08c-45.81 0-68.71-20.13-68.71-60.38z"/><path fill="url(#p)" d="M443.29 637.66h163.18v35.94H484.8v34.5h107.36v33.07H484.8v35.94h123.1v35.94H443.29z"/><path fill="url(#q)" d="M632.24 637.66h166.05v35.94H673.76v34.5h110.22v33.07H673.76v35.94h125.97v35.94H632.25V637.66z"/><path fill="url(#r)" d="M825.48 637.66h120.24c38.65 0 57.26 18.69 57.26 56.07 0 30.19-12.88 46-35.79 53.19l40.08 66.13h-51.53l-35.79-60.38h-54.39v60.38h-40.08zm40.08 35.94v44.57h74.43c15.75 0 24.33-7.19 24.33-21.56 0-15.81-8.59-23-24.33-23h-74.43z"/><path fill="url(#s)" d="M18.16 847.55H65.4l103.06 113.57V847.55h40.08V1010h-45.81L58.24 897.87V1010H18.16z"/><path fill="url(#t)" d="M240.03 847.55h163.18v33.07h-123.1v31.63h110.22v33.07H280.11v31.63h124.53v33.07H240.03V847.57z"/><path fill="url(#u)" d="M431.84 847.55h120.24c40.08 0 60.12 17.25 60.12 54.63 0 28.75-12.88 44.57-35.79 51.75l38.65 56.07h-51.53l-34.35-50.32h-57.26V1010h-40.08zm40.08 33.06v46h74.43c17.18 0 25.77-7.19 25.77-23s-8.59-23-25.77-23z"/><path fill="url(#v)" d="M637.97 847.55h103.06c51.53 0 77.3 27.31 77.3 80.51s-25.77 81.94-77.3 81.94H637.97zm40.08 34.5v93.44h55.83c28.63 0 42.94-15.81 42.94-47.44s-14.31-46-42.94-46z"/><path fill="url(#w)" d="M1002.98 847.55H899.92c-40.08 0-61.55 18.69-61.55 50.32 0 28.75 20.04 43.13 58.69 48.88l54.39 7.19c14.31 1.44 21.47 5.75 21.47 14.38s-8.59 12.94-24.33 12.94H838.37v28.75h115.95c38.65 0 58.69-18.69 58.69-47.44s-18.61-43.13-55.83-48.88l-57.26-8.63c-14.31-1.44-21.47-5.75-21.47-12.94 0-8.63 8.59-12.94 22.9-12.94h101.63z"/></g></svg>